<svg xmlns="http://www.w3.org/2000/svg" viewBox="0 0 24 24">
  <path d="M11.257.004C5.055.004 0 5.06 0 11.261c0 6.203 5.055 11.258 11.257 11.258 6.203 0 11.257-5.055 11.257-11.258C22.514 5.06 17.46.004 11.257.004zm.181 3.396c2.39 0 4.63.88 6.355 2.476l-2.354 2.354a5.65 5.65 0 0 0-4.001-1.652 5.658 5.658 0 0 0-5.657 5.656 5.658 5.658 0 0 0 5.657 5.657 5.657 5.657 0 0 0 5.472-4.205h-5.472V10.51h8.898c.09.486.136.985.136 1.494 0 4.69-3.803 8.492-8.492 8.492S2.947 16.694 2.947 12.004s3.802-8.604 8.491-8.604z" fill="#6B6B6B"/>
</svg>
