<svg xmlns="http://www.w3.org/2000/svg" viewBox="0 0 24 24">
  <path d="M23.996 12c0 6.627-5.373 12-11.999 12C5.373 24 0 18.627 0 12S5.373 0 11.997 0c6.626 0 11.999 5.373 11.999 12M12.53 4.874c-3.505-.007-7.099 1.77-7.099 6.044 0 2.26 1.264 3.82 2.76 4.74L6.3 19.347h2.413l1.677-3.316c.44.086.894.127 1.353.12 1.327-.013 2.694-.366 3.793-.99l.924 1.083 1.893-.666-1.16-1.353c.98-.847 1.64-2.003 1.64-3.428 0-2.29-1.467-3.596-2.98-4.133.426-.467.706-1.053.706-1.773 0-1.287-.94-2.053-2.027-2.017l-.003.003v-.003zm.47 2.09c.386 0 .64.28.64.677 0 .32-.14.573-.373.7l-.5-.587c.073-.507.14-.79.233-.79zm-1.607.777c1.667 0 3.41.88 3.41 3.207 0 1.58-1.06 2.67-2.317 3.11l-.96-1.127-1.887.667 1.147 1.34c-.39.1-.793.15-1.2.153-.37.007-.737-.04-1.087-.12l.713-1.41c-.773-.38-1.62-1.08-1.62-2.41 0-2.317 1.633-3.41 3.8-3.41z" fill="#1A8CFF"/>
</svg>
